<?xml version="1.0" encoding="UTF-8"?>
<svg id="_Слой_2" data-name="Слой_2" xmlns="http://www.w3.org/2000/svg" viewBox="0 0 740.28 764.48">
  <defs>
    <style>
      .cls-1 {
        fill: #ffa414;
      }

      .cls-2 {
        fill: #fe4023;
      }

      .cls-3 {
        fill: #ff5d26;
      }

      .cls-4 {
        fill: #000a0b;
      }

      .cls-5 {
        fill: #fdb848;
      }

      .cls-6 {
        fill: #ff3225;
      }

      .cls-7 {
        fill: #5b0436;
      }
    </style>
  </defs>
  <g id="_Слой_3" data-name="Слой_3">
    <g>
      <g>
        <g>
          <path class="cls-1" d="M588.52,348.93c-.05,8.24-1.53,16.47-2.42,24.7-.75,6.98-1.34,13.98-2.42,20.91-.99,6.34-2.48,12.61-3.83,18.9-3.74,17.39-9.95,33.97-17,50.21-3.07,7.08-7.24,13.68-11.08,20.41-10.63,18.68-24.92,34.4-41.05,48.3-8.13,7.01-17.73,12.35-26.78,18.28-14.04,9.18-29.78,14.59-45.69,19.25-9.52,2.78-19.44,4.22-29.23,6.03-4.81.89-9.79.94-14.59,1.87-12.6,2.46-25.32,1.52-37.98,1.4-13.65-.14-27.33-.63-40.91-1.86-8.76-.79-17.46-2.81-26.01-4.97-10.61-2.68-21.3-5.39-31.46-9.35-10.71-4.17-21.12-9.33-31.16-14.95-13.78-7.73-26.02-17.62-37.25-28.82-7.91-7.89-14.88-16.49-21.15-25.64-9.56-13.95-18.17-28.52-23.61-44.62-4.35-12.87-7.85-26.03-11.74-39.06-3.03-10.13-3.43-20.69-5.19-31.02-2.47-14.49-.7-28.98-1.39-38.99,0-13.33-.39-22.24.11-31.1.53-9.35,1.75-18.68,2.96-27.98,1.05-8.06,2.23-16.12,3.86-24.08,1.73-8.49,4.01-16.88,6.13-25.29,1.75-6.92,3.41-13.87,5.51-20.68,2.74-8.86,5.5-17.76,8.94-26.36,3.65-9.1,8.07-17.9,12.22-26.8,2.83-6.07,5.49-12.22,8.47-18.2.6-1.2,1.2-2.39,1.84-3.57.3-.59.61-1.17.93-1.75,4.57-8.36,9.8-16.36,14.9-24.42,2.78-4.39,5.8-8.64,8.82-12.88,15.08-21.19,32.14-40.62,52.54-56.82,16.26-12.9,33.85-23.84,53.5-30.92,10.28-3.71,20.88-6.06,31.8-7.67,12.28-1.82,24.52-1.57,36.64-.85,10.8.65,21.72,2.8,31.87,7.25,9.77,4.27,19.82,8.07,29.17,13.14,8.11,4.4,15.63,10.01,23.03,15.58,13.28,10.02,25.06,21.81,35.76,34.41,3.4,4.01,6.7,8.12,9.89,12.32.74.97,1.47,1.94,2.19,2.91,2.08,2.79,4.12,5.62,6.11,8.47.8,1.13,1.59,2.28,2.37,3.42,2.19,3.18,4.32,6.4,6.42,9.63,8.4,12.96,16.11,26.46,23.02,40.27,5.76,11.5,10.15,23.73,14.76,35.78,3.81,9.99,7.3,20.11,10.46,30.32,2.44,7.92,4.22,16.04,6.19,24.1,1.57,6.4,3.05,12.83,4.44,19.28.83,3.83,1.65,7.69,2.05,11.58,1.35,13.41,2.79,26.81,3.66,40.25.85,13.21,1.45,26.46,1.38,39.68Z"/>
          <path d="M144.63,626.69c2.7,1.27,5.38,2.6,8.11,3.79,14.86,6.43,30.32,9.22,46.55,8.49,18.06-.81,34.21-7.63,50.45-14.58,19.96-8.54,39.88-17.22,61.51-20.92,18.69-3.19,37.08-1.91,55.2,3.4,3.42,1,6.35.8,9.79-.36,12.67-4.27,25.86-6.29,39.16-5.09,11.61,1.05,23.23,2.88,34.58,5.53,8.56,2,16.79,5.61,25.01,8.89,16.35,6.52,32.1,14.73,49.41,18.51,24.13,5.27,47.35,2.4,69.29-9.37,1.29-.69,2.75-1.1,4.12-1.64l.56.95c-.5.77-.88,1.66-1.52,2.3-18.85,18.87-41.11,31.03-67.92,33.71-16.57,1.66-32.54-1.6-48.13-7.19-15.35-5.51-28.21-15.22-41.64-24.05-8.08-5.31-15.42-11.88-24.99-14.78-8.21-2.49-16.35-2.05-25.36-.16,1.42.93,2.2,1.61,3.1,2.02,22.48,10.3,42.36,24.6,61.49,40.03,4.49,3.62,8.62,7.7,12.8,11.69,3.24,3.09,3.07,4.29-.16,7.16-2.95,2.62-5.83,5.33-8.62,8.12-2.12,2.12-3.63,2.14-5.94-.13-12.68-12.41-25.33-24.87-38.43-36.82-11.62-10.6-25.15-18.55-38.92-26.06-2.55-1.39-4.93-1.07-7.21.32-9.73,5.94-19.8,11.41-29.02,18.07-14.99,10.83-28.82,23.08-40.74,37.34-2.08,2.49-4.11,5.01-6.1,7.57-1.79,2.3-3.49,2.92-5.92.65-3.29-3.08-6.84-5.87-10.28-8.79-2.72-2.31-2.76-3.19.1-5.6,12.93-10.87,25.63-22.05,38.96-32.41,7.42-5.76,15.85-10.24,23.96-15.07,4.94-2.94,10.14-5.44,15.99-8.54-7.08-2.09-13.53-2.11-19.99-.65-9.71,2.18-17.8,7.58-25.88,13.07-11.19,7.59-22.3,15.32-33.82,22.37-13.6,8.32-29.01,11.38-44.53,13.83-16.95,2.68-32.84-1.4-48.19-7.88-13.21-5.57-25.23-13.16-35.17-23.7-.88-.94-1.62-2.01-2.42-3.02.25-.33.5-.66.76-.99Z"/>
          <path d="M552.5,582.66c.96-1.12,1.82-2.35,2.9-3.34,10.25-9.32,17.16-20.96,22.27-33.56,6.19-15.28,11.57-30.88,17.25-46.37,3.83-10.44,6.93-21.23,13.34-30.49,7.22-10.42,14.76-20.62,22.18-30.91.22-.3.7-.41,1.43-.8.2.87.61,1.63.47,2.26-3.48,16.68-7.16,33.32-10.5,50.02-2.29,11.46-3.43,23.15-8.22,34.02-4.53,10.29-10.47,19.63-17.83,28.1-1.81,2.08-3.56,4.21-5.33,6.32.2.21.4.43.6.64,2.81-2.22,5.7-4.34,8.4-6.69,10.1-8.76,21.68-15.14,33.43-21.31,15.1-7.92,30.52-15.35,45.07-24.18,13.86-8.41,25.31-19.76,33.06-34.36.55-1.05,1.34-1.97,2.01-2.95.36.09.72.19,1.07.28-.09,1.26-.04,2.55-.28,3.78-2.79,14.24-9.15,26.9-17.42,38.66-16.97,24.13-39.18,41.99-66.13,53.68-8.06,3.5-16.9,5.36-25.53,7.37-15.79,3.68-31.68,6.92-47.54,10.32-1.33.28-2.7.39-4.05.58-.22-.36-.45-.73-.67-1.09Z"/>
          <path d="M187.14,585.6c-1.15-.11-2.32-.12-3.45-.34-16.06-3.08-32.09-6.27-48.16-9.27-18.22-3.39-35.28-9.36-50.67-20.13-15.14-10.6-29-22.4-39.8-37.48-8.59-12-15.63-24.82-19.19-39.29-.33-1.35-.38-2.78-.56-4.17l1.22-.45c.73,1.06,1.56,2.07,2.17,3.19,8.66,15.74,21.96,26.77,37.27,35.31,14.15,7.89,28.94,14.63,43.22,22.3,11.54,6.2,22.96,12.68,32.84,21.5,2.32,2.07,5.15,3.58,7.74,5.35.22-.28.44-.56.66-.84-2.89-3.19-5.81-6.37-8.68-9.58-11.19-12.51-18.14-27.11-21.13-43.58-2.62-14.43-4.88-28.92-7.64-43.32-1.19-6.21-3.25-12.26-4.89-18.38-.31-1.15-.51-2.34-.96-4.5,1.62,1.05,2.56,1.38,3.07,2.04,10.4,13.35,21.38,26.41,28.13,42.09,5.68,13.19,10.22,26.87,15.43,40.27,3.78,9.71,7.44,19.5,11.87,28.92,4.65,9.87,11.12,18.62,19.22,26.06,1.06.97,1.87,2.22,2.8,3.35-.17.32-.33.63-.5.95Z"/>
          <path d="M83.28,368.45c3.82,7.84,6.66,16.1,7.81,24.73,3.31,24.85,6.17,49.76,9.38,74.62,1.3,10.05,2.39,20.21,4.8,30.02,1.86,7.58,5.65,14.68,8.55,22,.84,2.13,1.58,4.31,2.37,6.46-.32.25-.63.51-.95.76-1.16-.58-2.38-1.05-3.45-1.75-16.53-10.77-33.29-21.2-49.47-32.48-17.65-12.3-33.85-26.31-45.32-44.95C6.77,431.23.6,413.32.38,393.59c-.06-5.07-.28-10.14-.38-15.21-.01-.76.24-1.53.37-2.29.32-.09.63-.19.95-.28.49,1.13,1.18,2.22,1.45,3.4,3.68,15.89,12.5,28.86,23.36,40.56,8.81,9.5,18.46,18.26,26.88,28.08,9.06,10.56,17.12,21.98,25.62,33.03,1.53,1.99,3.07,3.99,5.03,5.75-1.8-4.15-3.81-8.21-5.36-12.45-4.95-13.57-7.19-27.59-5.32-41.96,1.64-12.56,4.16-25,6.01-37.54,1.15-7.78,1.79-15.64,2.68-23.46.1-.91.36-1.8.55-2.71.35-.02.7-.03,1.05-.05Z"/>
          <path d="M622.94,523.79c.47-1.22.78-2.53,1.42-3.66,8.48-15.01,12.46-31.36,14.21-48.32,2.17-21.01,3.81-42.07,6.18-63.05,1.71-15.15,4.77-30.07,10.74-44.23.2-.47.58-.87,1.17-1.73.53,1.07,1.13,1.73,1.14,2.41.4,19.4,4.4,38.34,7.63,57.34,3.67,21.61.67,41.76-10.29,60.72-.27.47-.44.99-.09,1.92,1.62-2.13,3.27-4.24,4.86-6.4,8.1-10.99,15.8-22.31,24.41-32.89,6.38-7.83,13.89-14.75,20.96-22.01,14.96-15.34,27.54-32.07,31.74-53.76.1-.5.43-.96.65-1.44.33-.03.67-.06,1-.09.55,3.17,1.43,6.32,1.57,9.51.15,3.49-.23,7.02-.65,10.5-.57,4.75-1.39,9.48-2.12,14.21-3.02,19.46-11.88,36.28-23.6,51.76-11.53,15.23-25.86,27.38-41.79,37.81-13.91,9.1-27.63,18.5-41.44,27.77-2.19,1.47-4.39,2.91-6.59,4.37-.37-.25-.75-.5-1.12-.75Z"/>
          <path d="M281.64,604.11c-2.14.5-4.28,1.01-6.41,1.51-10.83,2.55-21.61,5.34-32.5,7.61-15.16,3.17-30.28,6.97-45.62,8.71-35.08,3.99-66.35-5.43-93.08-29.09-7.89-6.99-14.51-14.91-20.27-23.64-.71-1.08-1.17-2.32-1.74-3.48l.66-.56c.59.2,1.34.23,1.76.62,14.05,13.18,30.94,20.67,49.75,23.27,15.88,2.19,31.96,2.81,47.91,4.57,13.29,1.46,26.51,3.54,39.76,5.4,4.15.58,8.28,1.35,12.58,1.39-2.11-.69-4.18-1.58-6.33-2.05-20.79-4.53-35.69-16.57-45.47-35.29-6.98-13.36-14.08-26.66-21.1-40-.64-1.21-1.09-2.51-1.62-3.77.2-.25.39-.49.59-.74.89.37,1.93.56,2.65,1.14,6.14,4.95,12.34,9.83,18.28,15,8.92,7.77,17.7,15.71,26.45,23.68,7.29,6.64,14.48,13.38,21.66,20.13,8.05,7.57,17.46,12.78,27.9,16.2,6.83,2.24,13.68,4.41,20.52,6.64,1.28.42,2.51.97,3.77,1.47-.03.43-.06.86-.09,1.29Z"/>
          <path d="M509.07,598.66c1.77-.22,3.58-.28,5.32-.67,18.63-4.16,37.55-5.76,56.53-7.33,14.99-1.25,29.99-3.41,44.7-6.55,14.79-3.15,28.06-10.1,38.89-21.07.73-.74,1.68-1.25,2.52-1.87l.89.57c-.65,1.56-1.11,3.25-1.98,4.67-9.94,16.24-23.53,28.71-39.98,38.07-5.62,3.19-11.5,5.97-17.4,8.61-9.9,4.43-20.42,5.92-31.18,7-21.23,2.13-41.45-2.85-61.8-7.4-14.17-3.17-28.37-6.24-42.55-9.37-1.29-.28-2.55-.69-3.82-1.03-.02-.37-.03-.74-.05-1.12,1.5-.51,2.98-1.11,4.51-1.5,12.06-3.1,23.98-6.72,34.48-13.59,6.45-4.22,12.71-8.91,18.37-14.13,9.61-8.87,18.43-18.6,28.06-27.46,10.36-9.53,21.25-18.5,31.95-27.66,1.21-1.04,2.72-1.72,4.72-2.03-.19.72-.25,1.49-.58,2.14-5.67,11.18-11.5,22.27-17.03,33.52-5.13,10.41-10.59,20.53-19.07,28.73-8.74,8.45-19.18,13.71-30.76,16.97-1.22.34-2.44.7-3.65,1.08-.39.12-.75.36-1.12.55l.03.87Z"/>
          <path d="M677.81,435.28c0-3.04-.29-6.12.05-9.13,1.63-14.26-.28-27.9-4.9-41.57-9.34-27.68-17.06-55.83-20.54-84.96-.67-5.58-.7-11.24-.93-16.87-.05-1.31.32-2.63.5-3.95.46-.25.93-.51,1.39-.76.23.65.48,1.3.68,1.96,4.72,15.93,14.23,29.34,22.7,43.31,5.78,9.55,11.04,19.32,14.25,30.11,3.63,12.18,3.52,24.46,1.62,36.85-.11.7-.26,1.39-.33,2.09-.03.26.11.53.4,1.84,1.01-4.28,1.94-7.62,2.57-11,3.93-21.07,11.38-40.97,20.07-60.45,5.88-13.18,11.2-26.54,12.52-41.07.51-5.6.31-11.26.47-16.89.03-1.18.21-2.36.33-3.53.34-.06.68-.13,1.02-.19,1.11,2.92,2.39,5.8,3.31,8.78,5.14,16.78,6.74,33.9,5.24,51.41-1.56,18.31-5.38,36.07-13.67,52.47-4.16,8.22-9.86,15.72-15.35,23.18-8.94,12.14-18.27,24-27.46,35.96-.81,1.05-1.77,1.97-2.66,2.96-.42-.18-.84-.36-1.26-.54Z"/>
          <path d="M60.93,442.1c-3.29-4.24-6.37-8.21-9.44-12.18-8.95-11.61-17.75-23.33-26.89-34.79-9.34-11.73-14.9-25.09-18.55-39.49-4.29-16.94-6.53-34.06-5.61-51.52.63-11.9,3.47-23.4,6.97-34.74.2-.66.58-1.28.94-1.88.12-.2.45-.27,1.04-.59.18.85.52,1.6.47,2.32-1.41,20.36,4.65,38.99,13.16,57.06,7.64,16.22,14.79,32.64,18.84,50.2,1.43,6.18,2.49,12.44,3.74,18.66.16.78.46,1.54,1.24,2.22-.03-.79.02-1.59-.12-2.36-3.72-20.96,1.72-40.35,10.76-58.88,4.68-9.6,10.94-18.41,15.94-27.87,3.74-7.07,6.61-14.6,9.85-21.93.64-1.45,1.22-2.92,2.33-4.29,1.96,4.24,1.58,8.65,1.09,12.82-1.63,13.71-2.99,27.52-5.8,41.01-3.01,14.47-7.57,28.61-11.38,42.91-2.76,10.34-6.37,20.58-7.81,31.11-1.26,9.23-.03,18.79.11,28.21.01.97.09,1.94.06,2.91,0,.21-.34.41-.94,1.09Z"/>
          <path d="M689.4,164c1.22,1.42,2.53,2.78,3.64,4.28,7.97,10.79,15.3,21.93,20.01,34.64,5.41,14.61,7.47,29.59,7.42,45.17-.05,15.5-2.92,30.19-8.5,44.53-2.91,7.48-5.74,15.02-8.07,22.69-2.04,6.73-3.32,13.69-4.98,20.54-.35,1.44-.86,2.84-1.29,4.26-.37.05-.74.1-1.11.15-.78-1.95-1.85-3.84-2.29-5.87-3.72-17.37-14.04-31.14-24.15-45.09-10.32-14.25-21.62-27.85-29.49-43.77-5.54-11.2-8.65-23.2-11.78-35.2-.15-.57.12-1.24.26-2.48,1.12,1.03,1.94,1.56,2.46,2.3,8.91,12.74,20.75,22.7,32.37,32.64,15.6,13.34,26.79,28.82,29.76,49.51.08.54.25,1.07.7,1.58-.3-6.61-.86-13.22-.85-19.83.01-12.66.15-25.33.6-37.98.5-13.79,1.73-27.56,2.05-41.34.21-9.14-2.81-17.75-6.44-26.09-.56-1.3-.94-2.67-1.4-4.01.35-.21.71-.42,1.06-.62Z"/>
          <path d="M43.62,303.2c.46-2.2,1.11-4.38,1.35-6.6,1.69-15.88,9.54-28.9,19.81-40.37,8.44-9.42,18.09-17.76,27.05-26.73,3.97-3.98,7.54-8.36,11.32-12.52.95-1.04,2.03-1.95,3.06-2.92l.95.53c-.31,2.31-.45,4.66-.96,6.92-4.33,18.94-12.4,36.1-23.64,52-10.32,14.6-20.31,29.49-29.47,44.84-4.62,7.74-7.06,16.78-10.67,25.67-.41-.89-1.11-1.83-1.29-2.85-2.54-14.72-8.81-28.22-13.56-42.22-3.25-9.6-7.2-19.17-8.79-29.07-4.25-26.35-1.59-51.98,11.24-76,4.6-8.6,9.91-16.66,15.95-24.26.33.08.66.15.99.23-.24,1.33-.21,2.78-.77,3.96-7.06,15.04-7.17,30.9-5.16,46.86,2.66,21.16,4.49,42.34,3.49,63.68-.29,6.31-1.03,12.6-1.56,18.89l.66-.02Z"/>
          <path d="M596.6,141.22c2.53,3.41,4.88,6.84,7.49,10.05,7.03,8.64,16.2,14.78,25.14,21.18,6.53,4.68,13.06,9.37,19.45,14.24,8.5,6.48,15.38,14.43,20.94,23.68-1.58-4.94-3.33-9.83-4.69-14.84-4.47-16.46-8.66-33-13.24-49.44-2.99-10.73-9.05-19.63-17.48-26.93-.97-.84-1.81-1.81-2.4-3.23,4.6,0,8.59,1.79,12.21,3.9,25.11,14.61,39.46,36.23,40.49,65.54.57,16.01-.41,32.08-.51,48.12-.03,4.78.57,9.56.83,14.34.05,1-.12,2.02-.18,3.02-.28.07-.57.13-.85.2-2.03-2.79-4.07-5.56-6.08-8.37-6.96-9.75-16.1-17.26-25.21-24.85-12.23-10.19-24.67-20.18-36.28-31.04-10.74-10.05-15.6-23.58-18.93-37.63-.55-2.32-.96-4.68-1.39-7.03-.03-.17.29-.41.68-.93Z"/>
          <path d="M139.11,145.75c.09,4.67-.67,9.29-2.07,13.74-5.65,18.02-16.48,32.52-30.76,44.63-11.28,9.56-22.82,18.83-33.7,28.83-5.32,4.9-9.42,11.14-14,16.83-1.47,1.82-2.72,3.81-4.07,5.73-.36-.06-.72-.12-1.08-.18-.2-1.52-.54-3.03-.58-4.55-.35-16.48-.42-32.97-1.07-49.43-.39-9.93.16-19.66,2.38-29.34,3.86-16.87,13.69-29.89,26.79-40.47,5.17-4.17,11.55-6.85,17.45-10.1,1.16-.64,2.6-.75,3.91-1.11.17.24.35.47.52.71-.63.75-1.17,1.6-1.91,2.22-9.18,7.7-14.86,17.58-17.79,29.07-1.84,7.23-3.12,14.61-5.09,21.8-3.69,13.44-7.69,26.8-11.57,40.19-.43,1.47-.94,2.92-1.06,4.55,2.15-3.46,4.23-6.97,6.48-10.36,7.76-11.73,18.43-20.37,29.78-28.4,7.46-5.28,14.87-10.74,21.65-16.83,4.43-3.98,7.7-9.24,11.48-13.94,1.09-1.35,2.15-2.71,3.22-4.07.36.17.72.33,1.07.5Z"/>
          <path d="M560.49,81.97c1.01,0,2.15-.32,3,.05,13.91,6.09,28.13,11.62,41.57,18.63,12.24,6.38,20.58,17.3,27.72,28.96,8.58,13.99,12.7,29.71,17.37,45.21.15.48-.03,1.06-.11,2.44-1.44-.8-2.5-1.23-3.38-1.91-23.86-18.33-44.32-39.82-61.65-64.48-6.01-8.55-13.95-15.75-21.02-23.55-1.34-1.48-2.72-2.9-4.09-4.36.19-.33.39-.67.58-1Z"/>
          <path d="M86.03,179.52c.78-2.94,1.48-5.9,2.35-8.81,2.62-8.76,4.57-17.82,8.1-26.2,9-21.31,23.98-37.22,45.3-46.75,9.12-4.08,18.34-7.94,27.55-11.83,1.13-.48,2.46-.47,3.7-.69.18.33.36.66.53.99-.74.91-1.38,1.92-2.24,2.7-10.44,9.59-18.68,21.02-27.16,32.25-7.2,9.54-13.92,19.52-21.86,28.41-6.51,7.29-14.44,13.33-21.83,19.82-3.7,3.25-7.59,6.28-11.42,9.38-.62.5-1.35.85-2.03,1.27-.33-.19-.66-.37-.99-.56Z"/>
        </g>
        <path class="cls-5" d="M510.57,116.45c-5.78,15.63-15.79,29.16-33.75,27.71-4.55-.09-9.77-1.78-14.17-1.2-5.49.43-7.72,6.21-10.74,8.99-5.25,3.85-9.9-9.7-15.83-8.25-4.82,1.41-2.23,10.63-7.67,11.3-2.56.26-7.59-2.08-11.57-2.99-6.84-1.75-13.84-2.84-20.76-4.14-40.33-6.12-77.18-25.99-117.55-31.94-11.85-1.67-24.01-2.08-35.84-.44-6.69.93-13.26,2.52-19.57,4.87-4.01,1.5-10.26,4.3-1.66,3.57,57.33-7.09,83.48,4.52,135.11,25.76,6.49,2.55,13.04,5,19.7,7.07,8.24,2.98,17.78,3.77,25.77,7.13,13.56,7.12-34.47,9.17-37.51,8.61-9.75-.29-19.46-1.78-28.76-4.76-20.91-6.74-39.37-20.16-60.39-26.96-23.95-8.21-49.76-10.23-74.79-6.87-3.8.52-24.11,2.11-25.81,5.51.6-1.2,1.2-2.39,1.84-3.57,1.55-1.16,3.1-2.31,4.64-3.47.04.31.09.62.14.92,4.35-1.61,8.9-2.82,13.01-4.9,13.88-7.49,27-16.31,41.87-21.74,62.68-24.46,127.17,10.23,191.15,7.43,25.28-1.08,52.12-6.89,71.65-23.92,3.37-3.32,6.25-4.48,8.58-4.02,2.08,2.79,4.12,5.62,6.11,8.47.18.79.33,1.63.45,2.5.67,6.61-1.33,13.2-3.65,19.33Z"/>
        <path class="cls-5" d="M444.84,93.47c-.59,1.49-3.12,2.47-4.91,3.07-3.64,1.19-7.43,1.95-11.22,2.52-8.37,1.23-16.78,2.26-25.21,3.14-3.56.31-7.65.93-11.07.06-4.71-1.04-3.29-6.73-5.99-9.56-1.87-1.96-5.66-.97-7.46-2.43-3.31-3.01,4.77-15.45,2.7-18.48-1.66-.7-4.01,1.58-5.5,2.48-6.21,4.27-11.85,9.09-18.21,12.85-4.6,1.92-.96-6.51-1.06-8.59.45-3.63-.87-6.57-4.15-6.65-2.44-.2-5.31,1.23-7.39-.48-4.75-4.89-7.17-1-11.96.61-.59.15-1.36.38-1.78-.12-.54-.67.49-2.73,2.08-5.12,1.49-2.19,2.99-4.43,3.97-6.86,2-3.97,1.97-12.87-4.12-9.35-1.64,1.03-3.23,2.85-4.54,4.43-5.28,6.48-10.47,13.01-17.14,17.84-2.74,2.31-22.68,14.95-13.56,3.07,2.99-3.54,6.07-7.03,9.07-10.55,4.44-5.2,3.83-7.9-1.75-3.82-11.72,9.75-23.93,19.03-36.67,27.46-9.94,6.24-15.93,4.45-14.49-8.68.22-3.56,1.41-10.57,3.81-12.17,3.16-1.5,3.52,6.26,4.91,7.8,2.32,3.03,3.71-4.6,3.94-6.14.69-4.39,1.59-8.73,2.87-12.96,1.26-4.77,4.36-11.6,7.3-5.04,2.14,4.05,2.37,15.07,8.84,13.55,1.67-.48,3.26-1.77,4.62-2.94,4.32-3.81,8.46-7.92,12.73-11.84,4.03-3.85,7.75-7.36,13.28-7.51,13.21.07,12.68-3.86,21.97-10.35,10.74-6.05,19.77,7.08,27.64,12.64,3.28,2.72,6.55,5.21,10.68,5.93,4.32.81,9.02.81,12.6,3.69,12.97,10.13,23.22,25.19,38.81,31.22,2.9,1.14,5.91,2.07,8.89,3.01,2.53.95,7.39,1.76,7.46,4.2l-.02.08Z"/>
        <g>
          <path class="cls-2" d="M505.45,220.59c4.92,6.51,12.3,5.79,12.3,5.79-9.84,13.39-19.92,8.25-19.92,8.25-5.07-7.96-10.61-13.12-16.15-16.33-26.03-19.47-52.18-10.77-52.18-10.77-9.56-26.5-27.05-37.71-27.05-37.71,28.42-10.38,37.98,11.48,37.98,11.48,1.91-5.19-1.09-23.5-1.09-23.5,15.85,1.09,16.39,19.67,16.39,19.67,10.66-7.1,9.56-20.76,9.56-20.76,22.95,9.29,16.4,27.59,16.4,27.59,9.29-4.64,16.12-12.29,16.12-12.29,10.38,18.3-2.19,33.33-2.19,33.33,3.14,1.82,18.57-5.62,19.86-6.25-7.31,3.92-10.02,21.49-10.02,21.49Z"/>
          <path class="cls-3" d="M460.11,347.52c.3-1.21,6.34-25.88,2.91-42-3.52-16.52,8.98-45.02,8.98-45.02,0,0,2.32-26.62-16.01-31.23-17.74-4.47-9.46-11.14-8.92-11.56.02,0,.02-.02.02-.02,6.74-3.13,20.69-7.43,34.6.62,5.47,4.08,10.93,9.41,16.15,16.33.5.78.99,1.58,1.47,2.42l-12.1,5.53,7.61,8.65s-4.84,34.58,3.11,51.19c7.96,16.6,20.4,42.53,5.88,69.85,0,0-7.96-38.05-26.28-49.11,0,0,4.44,9.56,8.38,23.89v.02c9.37,59.52-28.28,85.93-28.28,85.93,5.09-8.66,7.59-18.98,8.58-29.17,2.34-23.85-3.54-47.04-3.54-47.04-34.49,51.94-71.53,65.82-93.89,69.06,0,0,88-41.59,79.02-116.93,0,0,15.8,20.68,12.32,38.61Z"/>
          <path class="cls-4" d="M321.56,451.9c-.1-.68-2.44-17.22,8.02-27.34,0,0-2.37,30.63,15.15,46.08,0,0-3.86-27.02,16.63-28.21,20.49-1.19,51.26-13.36,56.36-19.89,0,0-16.58,29.39-41.51,36.22,0,0,54.63-6.53,72.45-68.88,0,0-.3,35.01-10.39,47.49.52-.29,16.88-9.86,27.94-33.54-.99,10.19-3.49,20.5-8.58,29.17,0,0,37.66-26.41,28.28-85.93,7.33,26.66,12.93,69.85-14.95,98.85,0,0-17.64,27.33-41.84,37.7-24.21,10.37-34.93,30.43-37.01,38.39,0,0-50.84-3.47-86.8-78.5,0,0-.32-.53-.86-1.57,0,0-10.76-54.49,6.43-77.59,0,0-9.21,41.25,10.68,87.56Z"/>
          <path class="cls-6" d="M436.82,341.09c-24.56,38.75-53.21,35.54-53.21,35.54,29.92-10.4,29.92-45.67,29.92-45.67-29.92,35.91-65.51,19.84-65.51,19.84,0,0,33.24.76,59.3-45.29,0,0,10.54-74.23,39.74-87.82-.54.42-8.82,7.09,8.92,11.56,18.34,4.62,16.01,31.23,16.01,31.23,0,0-12.5,28.5-8.98,45.02,3.43,16.11-2.61,40.79-2.91,42,3.47-17.93-12.32-38.61-12.32-38.61,8.98,75.34-79.02,116.93-79.02,116.93-12.76,1.86-20.74.23-20.74.23,65.81-25.26,88.37-83.84,88.8-84.98Z"/>
          <path class="cls-7" d="M462.66,356.79s5.88,23.19,3.54,47.04c-11.06,23.68-27.43,33.25-27.94,33.54,10.09-12.48,10.39-47.49,10.39-47.49-17.82,62.35-72.45,68.88-72.45,68.88,24.93-6.83,41.51-36.22,41.51-36.22-5.1,6.53-35.87,18.7-56.36,19.89-20.49,1.19-16.63,28.21-16.63,28.21-17.52-15.45-15.15-46.08-15.15-46.08-10.46,10.12-8.12,26.66-8.02,27.34-19.89-46.3-10.68-87.56-10.68-87.56-17.19,23.1-6.43,77.59-6.43,77.59-3.45-6.52-15.91-32.84-12.63-66.91,0,0-31.82,24.2-12.1,53.25,0,0-45.65-13.14-18.67-67.09l6.91-7.26s-51.88,11.22-44.61,70.62c0,0,0,0,0,0-9.41-15.37-2.54-48.24-2.54-48.24,25.51-84.4,88.18-68.34,88.18-68.34-50.87,4.82-55.43,37.79-55.43,37.79,2.83-3.47,37.79-20.79,58.26-8.19s56.96-11.05,56.96-11.05c0,0,10.2-16.17,38.56-21.01-26.06,46.05-59.3,45.29-59.3,45.29,0,0,35.59,16.06,65.51-19.84,0,0,0,35.27-29.92,45.67,0,0,28.65,3.21,53.21-35.54-.43,1.14-22.99,59.72-88.8,84.98,0,0,7.98,1.62,20.74-.23,22.36-3.23,59.4-17.12,93.89-69.06Z"/>
          <path class="cls-7" d="M368.77,326.53s-36.49,23.64-56.96,11.05-55.43,4.72-58.26,8.19c0,0,4.56-32.97,55.43-37.79,0,0-62.67-16.06-88.18,68.34,0,0-6.86,32.87,2.54,48.24-.79-.69-40.33-36,6.58-101.74,0,0,4.49-8.65,18.67-16.25,0,0-69.5,5.02-63.37,94.32,0,0-21.42-72.12,19.52-102.67,0,0,20.16-21.1,60.16-20.47,0,0-27.08-23.93-71.5,2.21,0,0,41.26-54.48,110.86-22.05,0,0,35.81,7.82,64.51,68.63Z"/>
          <path class="cls-4" d="M368.77,326.53c-28.7-60.81-64.51-68.63-64.51-68.63-69.6-32.43-110.86,22.05-110.86,22.05,44.41-26.14,71.5-2.21,71.5-2.21-40-.63-60.16,20.47-60.16,20.47-40.94,30.55-19.52,102.67-19.52,102.67.17,2.52.4,5.1.7,7.76,0,0-68.47-88.28,26.63-153.12,39.06-26.63,126.94-26.63,156.23,71.01Z"/>
        </g>
      </g>
      <g>
        <path d="M129.81,758.31c2.06,1.27,5.07,2.32,8.23,2.32,4.7,0,7.44-2.48,7.44-6.07,0-3.32-1.9-5.22-6.7-7.07-5.8-2.06-9.39-5.07-9.39-10.08,0-5.54,4.59-9.66,11.5-9.66,3.64,0,6.28.84,7.86,1.74l-1.27,3.75c-1.16-.63-3.54-1.69-6.75-1.69-4.85,0-6.7,2.9-6.7,5.33,0,3.32,2.16,4.96,7.07,6.86,6.02,2.32,9.08,5.22,9.08,10.45,0,5.49-4.06,10.24-12.45,10.24-3.43,0-7.18-1-9.08-2.27l1.16-3.85Z"/>
        <path d="M162.21,752.72l-3.69,11.19h-4.75l12.08-35.56h5.54l12.14,35.56h-4.91l-3.8-11.19h-12.61ZM173.87,749.13l-3.48-10.24c-.79-2.32-1.32-4.43-1.85-6.49h-.11c-.53,2.11-1.11,4.27-1.79,6.44l-3.48,10.29h10.71Z"/>
        <path d="M188.75,763.9v-35.56h5.01l11.4,17.99c2.64,4.17,4.7,7.91,6.38,11.55l.11-.05c-.42-4.75-.53-9.08-.53-14.62v-14.88h4.33v35.56h-4.64l-11.29-18.05c-2.48-3.96-4.85-8.02-6.65-11.87l-.16.05c.26,4.49.37,8.76.37,14.67v15.2h-4.33Z"/>
        <path d="M250.53,762.32c-2.06.74-6.12,1.95-10.92,1.95-5.38,0-9.81-1.37-13.3-4.7-3.06-2.95-4.96-7.7-4.96-13.24.05-10.61,7.33-18.36,19.26-18.36,4.12,0,7.33.9,8.86,1.64l-1.11,3.75c-1.9-.84-4.27-1.53-7.86-1.53-8.65,0-14.3,5.38-14.3,14.3s5.43,14.35,13.72,14.35c3.01,0,5.07-.42,6.12-.95v-10.61h-7.23v-3.69h11.71v17.1Z"/>
        <path d="M255.12,761.21l19.73-28.86v-.16h-18.05v-3.85h24.01v2.8l-19.63,28.76v.16h19.89v3.85h-25.96v-2.69Z"/>
        <path d="M316.01,745.75c0,12.24-7.44,18.73-16.52,18.73s-15.99-7.28-15.99-18.04c0-11.29,7.02-18.68,16.52-18.68s15.99,7.44,15.99,17.99ZM288.41,746.33c0,7.6,4.12,14.4,11.34,14.4s11.4-6.7,11.4-14.77c0-7.07-3.69-14.46-11.34-14.46s-11.4,7.02-11.4,14.83Z"/>
        <path d="M321.97,728.81c2.32-.47,5.65-.74,8.81-.74,4.91,0,8.07.9,10.29,2.9,1.79,1.58,2.8,4.01,2.8,6.75,0,4.7-2.95,7.81-6.7,9.08v.16c2.74.95,4.38,3.48,5.22,7.18,1.16,4.96,2.01,8.39,2.74,9.76h-4.75c-.58-1-1.37-4.06-2.37-8.5-1.06-4.91-2.96-6.75-7.12-6.91h-4.33v15.41h-4.59v-35.09ZM326.56,745.01h4.7c4.91,0,8.02-2.69,8.02-6.75,0-4.59-3.32-6.6-8.18-6.65-2.22,0-3.8.21-4.54.42v12.98Z"/>
        <path d="M361.54,728.76c2.22-.37,5.12-.69,8.81-.69,4.54,0,7.86,1.05,9.97,2.96,1.95,1.69,3.11,4.27,3.11,7.44s-.95,5.75-2.74,7.6c-2.43,2.59-6.38,3.91-10.87,3.91-1.37,0-2.64-.05-3.69-.32v14.25h-4.59v-35.14ZM366.13,745.91c1,.26,2.27.37,3.8.37,5.54,0,8.92-2.69,8.92-7.6s-3.32-6.96-8.39-6.96c-2.01,0-3.54.16-4.33.37v13.82Z"/>
        <path d="M390.93,752.72l-3.69,11.19h-4.75l12.08-35.56h5.54l12.14,35.56h-4.91l-3.8-11.19h-12.61ZM402.59,749.13l-3.48-10.24c-.79-2.32-1.32-4.43-1.85-6.49h-.11c-.53,2.11-1.11,4.27-1.79,6.44l-3.48,10.29h10.71Z"/>
        <path d="M417.47,728.81c2.32-.47,5.65-.74,8.81-.74,4.91,0,8.07.9,10.29,2.9,1.79,1.58,2.8,4.01,2.8,6.75,0,4.7-2.95,7.81-6.7,9.08v.16c2.74.95,4.38,3.48,5.22,7.18,1.16,4.96,2.01,8.39,2.74,9.76h-4.75c-.58-1-1.37-4.06-2.37-8.5-1.06-4.91-2.96-6.75-7.12-6.91h-4.33v15.41h-4.59v-35.09ZM422.06,745.01h4.7c4.91,0,8.02-2.69,8.02-6.75,0-4.59-3.32-6.6-8.18-6.65-2.22,0-3.8.21-4.54.42v12.98Z"/>
        <path d="M445.85,728.81c2.32-.47,5.65-.74,8.81-.74,4.91,0,8.07.9,10.29,2.9,1.79,1.58,2.8,4.01,2.8,6.75,0,4.7-2.95,7.81-6.7,9.08v.16c2.74.95,4.38,3.48,5.22,7.18,1.16,4.96,2.01,8.39,2.74,9.76h-4.75c-.58-1-1.37-4.06-2.37-8.5-1.06-4.91-2.96-6.75-7.12-6.91h-4.33v15.41h-4.59v-35.09ZM450.44,745.01h4.7c4.91,0,8.02-2.69,8.02-6.75,0-4.59-3.32-6.6-8.18-6.65-2.22,0-3.8.21-4.54.42v12.98Z"/>
        <path d="M480.25,752.72l-3.69,11.19h-4.75l12.08-35.56h5.54l12.14,35.56h-4.91l-3.8-11.19h-12.61ZM491.92,749.13l-3.48-10.24c-.79-2.32-1.32-4.43-1.85-6.49h-.11c-.53,2.11-1.11,4.27-1.79,6.44l-3.48,10.29h10.71Z"/>
        <path d="M506.79,763.9v-35.56h5.01l11.4,17.99c2.64,4.17,4.7,7.91,6.38,11.55l.11-.05c-.42-4.75-.53-9.08-.53-14.62v-14.88h4.33v35.56h-4.64l-11.29-18.05c-2.48-3.96-4.85-8.02-6.65-11.87l-.16.05c.26,4.49.37,8.76.37,14.67v15.2h-4.33Z"/>
        <path d="M541.51,728.81c2.8-.42,6.12-.74,9.76-.74,6.6,0,11.29,1.53,14.41,4.43,3.17,2.9,5.01,7.02,5.01,12.77s-1.79,10.55-5.12,13.82c-3.32,3.32-8.81,5.12-15.72,5.12-3.27,0-6.01-.16-8.34-.42v-34.98ZM546.1,760.26c1.16.21,2.85.26,4.64.26,9.81,0,15.14-5.49,15.14-15.09.05-8.39-4.7-13.72-14.41-13.72-2.37,0-4.17.21-5.38.47v28.07Z"/>
        <path d="M581.66,752.72l-3.69,11.19h-4.75l12.08-35.56h5.54l12.14,35.56h-4.91l-3.8-11.19h-12.61ZM593.32,749.13l-3.48-10.24c-.79-2.32-1.32-4.43-1.85-6.49h-.11c-.53,2.11-1.11,4.27-1.79,6.44l-3.48,10.29h10.71Z"/>
      </g>
    </g>
  </g>
</svg>